# xmcd
#
# Track frame offsets: 
#        150
#        10928
#        28642
#        45117
#        62521
#        80543
#        95355
#        114874
#        133009
#        150449
#        162415
#        179054
#        194957
#        211170
#        227107
#        243537
#        258745
#        279485
#        297390
#        319559
#
# Disc length: 4489 seconds
#
# Revision: 0
# Processed by: cddbd v1.5.2PL0 Copyright (c) Steve Scherf et al.
# Submitted via: ExactAudioCopyFreeDBPlugin 1.0
#
DISCID=18118714
DTITLE=TMK aka Piekielny - Zaczekaj na mnie LP
DYEAR=2011
DGENRE=Rap
TTITLE0=Siema (prod. R-Ice)
TTITLE1=Pytają mnie (prod. Daw)
TTITLE2=Co z tą muzyką (prod. Kazet)
TTITLE3=Nie kumam tego (prod. Wubits)
TTITLE4=Słyszę to miasto ft. Samo&Chaos prod. Junis
TTITLE5=Pętla (prod. TSK)
TTITLE6=To nie dla mnie (ft. 3czwarte sukcesu and AnD prod. Maniu&Gregor
TTITLE6=)
TTITLE7=Chodźmy na piwo (ft. Hyzio prod. Sebastian Tomczyk)
TTITLE8=Nie za wszelką cenę (ft. Drobny prod. Kazet)
TTITLE9=Chrystus miasta (Prod. Szatt)
TTITLE10=Mówmy głosno (prod. Kazet)
TTITLE11=Jestem inny niż wy (prod. PDW)
TTITLE12=Za błędy (ft. NTW prod. Maniu& Gregor)
TTITLE13=(Nie)śmiertelni (ft. Dj Holibut prod. Kazet)
TTITLE14=W inną stronę (skr. Dj Holibut prod. Daw)
TTITLE15=Zabieram Cię ze sobą (ft. eRbit&Rybson prod. Rożo)
TTITLE16=Czysty rap (ft. Szkodnik prod. Daw)
TTITLE17=Doświadczenie (prod. MrQuest)
TTITLE18=Mój dom (prod. Ślimak,eŚWu)
TTITLE19=Zaczekaj na mnie (prod. Daw)
EXTD=
EXTT0=
EXTT1=
EXTT2=
EXTT3=
EXTT4=
EXTT5=
EXTT6=
EXTT7=
EXTT8=
EXTT9=
EXTT10=
EXTT11=
EXTT12=
EXTT13=
EXTT14=
EXTT15=
EXTT16=
EXTT17=
EXTT18=
EXTT19=
PLAYORDER=
